<?xml version="1.0" encoding="UTF-8" standalone="no"?>
<!-- Created with Inkscape (http://www.inkscape.org/) -->

<svg
   width="100"
   height="50"
   viewBox="0 0 100 50"
   version="1.1"
   id="svg1"
   inkscape:version="1.3.2 (091e20e, 2023-11-25)"
   sodipodi:docname="barkacsbolt_logo.svg"
   xmlns:inkscape="http://www.inkscape.org/namespaces/inkscape"
   xmlns:sodipodi="http://sodipodi.sourceforge.net/DTD/sodipodi-0.dtd"
   xmlns="http://www.w3.org/2000/svg"
   xmlns:svg="http://www.w3.org/2000/svg">
  <sodipodi:namedview
     id="namedview1"
     pagecolor="#505050"
     bordercolor="#ffffff"
     borderopacity="1"
     inkscape:showpageshadow="0"
     inkscape:pageopacity="0"
     inkscape:pagecheckerboard="1"
     inkscape:deskcolor="#505050"
     inkscape:document-units="px"
     inkscape:zoom="7.46"
     inkscape:cx="50"
     inkscape:cy="19.369973"
     inkscape:window-width="1376"
     inkscape:window-height="646"
     inkscape:window-x="0"
     inkscape:window-y="25"
     inkscape:window-maximized="0"
     inkscape:current-layer="layer4" />
  <defs
     id="defs1">
    <inkscape:path-effect
       effect="bspline"
       id="path-effect75"
       is_visible="true"
       lpeversion="1.3"
       weight="33.333333"
       steps="2"
       helper_size="0"
       apply_no_weight="true"
       apply_with_weight="true"
       only_selected="false"
       uniform="false" />
    <inkscape:path-effect
       effect="bspline"
       id="path-effect74"
       is_visible="true"
       lpeversion="1.3"
       weight="33.333333"
       steps="2"
       helper_size="0"
       apply_no_weight="true"
       apply_with_weight="true"
       only_selected="false"
       uniform="false" />
    <inkscape:path-effect
       effect="bspline"
       id="path-effect73"
       is_visible="true"
       lpeversion="1.3"
       weight="33.333333"
       steps="2"
       helper_size="0"
       apply_no_weight="true"
       apply_with_weight="true"
       only_selected="false"
       uniform="false" />
    <inkscape:path-effect
       effect="bspline"
       id="path-effect58"
       is_visible="true"
       lpeversion="1.3"
       weight="33.333333"
       steps="2"
       helper_size="0"
       apply_no_weight="true"
       apply_with_weight="true"
       only_selected="false"
       uniform="false" />
    <inkscape:path-effect
       effect="bspline"
       id="path-effect57"
       is_visible="true"
       lpeversion="1.3"
       weight="33.333333"
       steps="2"
       helper_size="0"
       apply_no_weight="true"
       apply_with_weight="true"
       only_selected="false"
       uniform="false" />
    <inkscape:path-effect
       effect="bspline"
       id="path-effect56"
       is_visible="true"
       lpeversion="1.3"
       weight="33.333333"
       steps="2"
       helper_size="0"
       apply_no_weight="true"
       apply_with_weight="true"
       only_selected="false"
       uniform="false" />
    <inkscape:path-effect
       effect="bspline"
       id="path-effect55"
       is_visible="true"
       lpeversion="1.3"
       weight="33.333333"
       steps="2"
       helper_size="0"
       apply_no_weight="true"
       apply_with_weight="true"
       only_selected="false"
       uniform="false" />
    <inkscape:path-effect
       effect="bspline"
       id="path-effect52"
       is_visible="true"
       lpeversion="1.3"
       weight="33.333333"
       steps="2"
       helper_size="0"
       apply_no_weight="true"
       apply_with_weight="true"
       only_selected="false"
       uniform="false" />
    <inkscape:path-effect
       effect="bspline"
       id="path-effect51"
       is_visible="true"
       lpeversion="1.3"
       weight="33.333333"
       steps="2"
       helper_size="0"
       apply_no_weight="true"
       apply_with_weight="true"
       only_selected="false"
       uniform="false" />
    <inkscape:path-effect
       effect="bspline"
       id="path-effect31"
       is_visible="true"
       lpeversion="1.3"
       weight="33.333333"
       steps="2"
       helper_size="0"
       apply_no_weight="true"
       apply_with_weight="true"
       only_selected="false"
       uniform="false" />
    <inkscape:path-effect
       effect="bspline"
       id="path-effect30"
       is_visible="true"
       lpeversion="1.3"
       weight="33.333333"
       steps="2"
       helper_size="0"
       apply_no_weight="true"
       apply_with_weight="true"
       only_selected="false"
       uniform="false" />
    <inkscape:path-effect
       effect="bspline"
       id="path-effect7"
       is_visible="true"
       lpeversion="1.3"
       weight="33.333333"
       steps="2"
       helper_size="0"
       apply_no_weight="true"
       apply_with_weight="true"
       only_selected="false"
       uniform="false" />
    <inkscape:path-effect
       effect="bspline"
       id="path-effect2"
       is_visible="true"
       lpeversion="1.3"
       weight="33.333333"
       steps="2"
       helper_size="0"
       apply_no_weight="true"
       apply_with_weight="true"
       only_selected="false"
       uniform="false" />
    <inkscape:path-effect
       effect="bspline"
       id="path-effect1"
       is_visible="true"
       lpeversion="1.3"
       weight="33.333333"
       steps="2"
       helper_size="0"
       apply_no_weight="true"
       apply_with_weight="true"
       only_selected="false"
       uniform="false" />
  </defs>
  <g
     inkscape:groupmode="layer"
     id="layer4"
     inkscape:label="deszka">
    <path
       style="display:inline;fill:#552200;fill-opacity:1;stroke:#552200;stroke-width:0.044976;stroke-linecap:round;stroke-linejoin:round"
       d="m 44.312645,45.44972 c -1.265162,-0.910651 -2.362379,-1.713278 -2.438263,-1.783615 -0.08199,-0.07599 0.117969,-0.431411 0.492836,-0.875979 0.346941,-0.411454 0.584685,-0.822719 0.528316,-0.913926 -0.06359,-0.102898 -0.406865,-0.140586 -0.90455,-0.09932 -0.725865,0.0602 -0.793806,0.04051 -0.715164,-0.207276 0.138159,-0.435298 -0.238609,-0.470018 -2.126841,-0.195987 l -1.753373,0.25446 -0.920457,-0.440493 -0.92046,-0.440494 0.318959,-0.318958 c 0.521361,-0.52136 0.176246,-0.691553 -1.062343,-0.523892 -0.981458,0.132855 -1.073022,0.119112 -1.735863,-0.260524 l -0.699751,-0.400774 0.648366,-0.373077 c 1.169237,-0.672789 38.71075,-20.954158 38.786871,-20.954158 0.04083,0 0.05457,0.251314 0.03055,0.558477 l -0.04368,0.558478 0.947656,-0.0369 0.947655,-0.0369 -0.0998,0.707071 c -0.05489,0.388889 -0.134119,0.824682 -0.176057,0.968428 -0.114559,0.392667 0.341248,0.48774 0.948971,0.197938 0.52344,-0.24961 0.772572,-0.164757 0.780165,0.265724 0.0022,0.124941 2.33944,0.0037 2.869129,-0.148798 0.212274,-0.06113 0.260624,0.02006 0.260624,0.437619 0,0.281965 0.04312,0.728261 0.09583,0.991769 0.09507,0.475337 0.101215,0.478327 0.781869,0.380247 0.377324,-0.05437 0.827982,-0.132601 1.001463,-0.173842 0.252078,-0.05993 0.405489,0.0714 0.763977,0.654021 l 0.448561,0.729006 1.760998,0.250502 c 1.458225,0.207432 1.896591,0.33268 2.549653,0.728478 0.433761,0.262886 0.788657,0.520953 0.788657,0.573481 0,0.08526 -39.632765,21.584941 -39.789927,21.584941 -0.03535,0 -1.099406,-0.745078 -2.364567,-1.655731 z"
       id="path46" />
    <path
       style="fill:#aa4400;stroke:#000000;stroke-width:0.455186;stroke-linecap:round;stroke-linejoin:round"
       d="M 31.727559,39.208579 72.304665,17.254776"
       id="path8" />
    <path
       style="fill:#aa4400;stroke:#000000;stroke-width:0.455186;stroke-linecap:round;stroke-linejoin:round"
       d="M 46.774902,47.441256 87.352009,25.487452"
       id="path9" />
    <path
       style="fill:#aa4400;stroke:#000000;stroke-width:0.455186;stroke-linecap:round;stroke-linejoin:round"
       d="m 31.746914,39.249542 v 2.668135"
       id="path10" />
    <path
       style="fill:#aa4400;stroke:#000000;stroke-width:0.455186;stroke-linecap:round;stroke-linejoin:round"
       d="m 46.75062,47.4965 v 2.328553"
       id="path11" />
    <path
       style="fill:#aa4400;stroke:#000000;stroke-width:0.455186;stroke-linecap:round;stroke-linejoin:round"
       d="m 87.32979,25.502856 0.190205,2.517217"
       id="path12"
       sodipodi:nodetypes="cc" />
    <path
       style="fill:#aa4400;stroke:#000000;stroke-width:0.455186;stroke-linecap:round;stroke-linejoin:round"
       d="M 46.943974,49.911058 87.521082,27.957253"
       id="path13" />
    <path
       style="fill:#aa4400;stroke:#000000;stroke-width:0.455186;stroke-linecap:round;stroke-linejoin:round"
       d="m 31.68529,41.9185 1.902052,0.926176"
       id="path14" />
    <path
       style="fill:none;stroke:#000000;stroke-width:0.455186;stroke-linecap:round;stroke-linejoin:round"
       d="m 33.62961,42.844676 0.04226,-2.469803 2.071126,-0.308723"
       id="path15" />
    <path
       style="fill:none;stroke:#000000;stroke-width:0.455186;stroke-linecap:round;stroke-linejoin:round"
       d="m 35.827536,40.100452 -0.929891,0.651753 -0.08455,2.538408 2.578337,1.337812"
       id="path16" />
    <path
       style="fill:none;stroke:#000000;stroke-width:0.455186;stroke-linecap:round;stroke-linejoin:round"
       d="M 33.714147,42.844676 34.728572,42.63886"
       id="path17" />
    <path
       style="fill:none;stroke:#000000;stroke-width:0.455186;stroke-linecap:round;stroke-linejoin:round"
       d="m 37.391445,44.628425 0.08454,-2.675622 3.508223,-0.548843 -0.169071,0.788964 1.817515,-0.205817 -1.394838,1.646535 -0.126802,2.435499 5.621623,3.841917"
       id="path18" />
    <path
       style="fill:none;stroke:#000000;stroke-width:0.455186;stroke-linecap:round;stroke-linejoin:round"
       d="m 40.77287,42.261528 0.169072,1.200599 -0.549481,0.686056 0.169071,0.857572 0.591749,-0.03431"
       id="path19" />
    <path
       style="fill:none;stroke:#000000;stroke-width:0.455186;stroke-linecap:round;stroke-linejoin:round"
       d="m 37.433712,44.662724 2.874213,-0.205815"
       id="path20" />
    <path
       style="fill:none;stroke:#000000;stroke-width:0.455186;stroke-linecap:round;stroke-linejoin:round"
       d="m 31.769826,39.242881 1.902051,1.097691"
       id="path21" />
    <path
       style="fill:none;stroke:#000000;stroke-width:0.455186;stroke-linecap:round;stroke-linejoin:round"
       d="m 34.897645,40.786508 2.620604,1.234903"
       id="path22" />
    <path
       style="fill:none;stroke:#000000;stroke-width:0.455186;stroke-linecap:round;stroke-linejoin:round"
       d="m 41.322355,43.667944 5.494815,3.979127"
       id="path23" />
    <path
       style="fill:none;stroke:#000000;stroke-width:0.455186;stroke-linecap:round;stroke-linejoin:round"
       d="m 72.389201,17.323381 -0.338143,1.509324 2.028857,-0.24012 -0.380411,2.195381 1.521642,-0.72036 0.169072,0.857571 3.08555,-0.308726 0.211338,1.920957 1.98659,-0.343028 0.845355,1.475023 3.508229,0.514541 2.240194,1.372113"
       id="path24" />
    <path
       style="display:inline;fill:none;stroke:#000000;stroke-width:0.455186;stroke-linecap:round;stroke-linejoin:round"
       d="m 36.588749,38.764427 9.085907,-4.948174"
       id="path25" />
    <path
       style="display:inline;fill:none;stroke:#000000;stroke-width:0.455186;stroke-linecap:round;stroke-linejoin:round"
       d="m 80.344578,25.181206 c -5.904014,1.029927 -9.901276,3.607296 -13.270212,6.694587"
       id="path26"
       sodipodi:nodetypes="cc" />
    <path
       style="display:inline;fill:none;stroke:#000000;stroke-width:0.455186;stroke-linecap:round;stroke-linejoin:round"
       d="M 81.540094,26.054413 C 78.093557,29.237284 73.290496,31.099078 68.269882,32.749"
       id="path27"
       sodipodi:nodetypes="cc" />
    <path
       style="display:inline;fill:none;stroke:#000000;stroke-width:0.455186;stroke-linecap:round;stroke-linejoin:round"
       d="m 41.251253,37.794197 13.15066,-7.276725"
       id="path28" />
    <path
       style="display:inline;fill:#000000;stroke:#000000;stroke-width:0.302;stroke-linecap:round;stroke-linejoin:round"
       d="m 30.593684,24.277895 c 0.412632,-0.55579 0.825263,-1.111579 1.410534,-1.49895 0.585271,-0.387371 1.34315,-0.606314 2.101045,-0.825261"
       id="path30"
       inkscape:path-effect="#path-effect30"
       inkscape:original-d="m 30.593684,24.277895 c 0.412632,-0.55579 0.825263,-1.111579 1.237895,-1.667369 0.75791,-0.218951 1.515789,-0.437894 2.273684,-0.656842"
       transform="matrix(1.6731013,0,0,1.3578199,20.568854,-3.0524922)" />
    <path
       style="display:inline;fill:#000000;stroke:#000000;stroke-width:0.302;stroke-linecap:round;stroke-linejoin:round"
       d="m 30.644211,24.303158 c 0.88421,-0.176842 1.768421,-0.353684 2.345266,-0.741059 0.576844,-0.387374 0.846312,-0.985257 1.115786,-1.583152"
       id="path31"
       inkscape:path-effect="#path-effect31"
       inkscape:original-d="m 30.644211,24.303158 c 0.88421,-0.176842 1.768421,-0.353684 2.652631,-0.530526 0.269479,-0.597907 0.538948,-1.19579 0.808421,-1.793685"
       transform="matrix(1.6731013,0,0,1.3578199,20.568854,-3.0524922)" />
    <path
       style="display:inline;fill:#000000;stroke:#000000;stroke-width:0.455186;stroke-linecap:round;stroke-linejoin:round"
       d="m 72.167294,29.741 4.919507,-2.667846"
       id="path35" />
    <path
       style="display:inline;fill:#552200;stroke:none;stroke-width:0.0229987;stroke-linecap:round;stroke-linejoin:round"
       d="m 47.029664,48.693308 c 6.33e-4,-0.462231 0.02503,-0.912767 0.05419,-1.00119 0.03987,-0.120862 5.0071,-2.84123 20.012658,-10.960189 l 19.959619,-10.799419 0.05502,0.566435 c 0.03025,0.31154 0.0588,0.74392 0.06341,0.960845 l 0.0084,0.394409 -20.034811,10.839763 c -11.019147,5.961871 -20.053893,10.839765 -20.077214,10.839765 -0.02332,0 -0.04187,-0.378189 -0.04126,-0.840419 z"
       id="path39" />
    <path
       style="display:inline;fill:#552200;stroke:none;stroke-width:0.0114995;stroke-linecap:round;stroke-linejoin:round"
       d="m 43.906605,47.689019 -2.509019,-1.719567 0.03042,-0.740394 c 0.01673,-0.407216 0.0426,-0.826624 0.0575,-0.932016 l 0.02707,-0.191619 2.483232,1.798911 2.483236,1.798912 v 0.85521 c 0,0.470367 -0.01422,0.854067 -0.0317,0.852671 -0.01744,-0.0014 -1.16076,-0.776346 -2.54072,-1.722108 z"
       id="path40" />
    <path
       style="fill:#552200;stroke:none;stroke-width:0.0114995;stroke-linecap:round;stroke-linejoin:round"
       d="m 41.177889,43.164713 c -0.02215,-0.111199 -0.108777,-0.70991 -0.109022,-0.753452 -6.5e-5,-0.01195 0.156803,-0.03971 0.348591,-0.06164 0.191789,-0.02191 0.412714,-0.0489 0.490946,-0.05996 l 0.142231,-0.0201 -0.254191,0.306799 c -0.139805,0.168741 -0.331055,0.395847 -0.424998,0.504685 l -0.17081,0.197884 z"
       id="path41" />
    <path
       style="fill:#552200;stroke:none;stroke-width:0.0114995;stroke-linecap:round;stroke-linejoin:round"
       d="m 40.735004,44.488782 -0.05105,-0.296157 0.1285,-0.159431 0.1285,-0.159432 -0.0031,0.274421 c -0.0043,0.354453 -0.04707,0.608718 -0.105433,0.624359 -0.02867,0.0078 -0.06563,-0.100146 -0.0973,-0.28376 z"
       id="path42" />
    <path
       style="display:inline;fill:#552200;stroke:none;stroke-width:0.0114995;stroke-linecap:round;stroke-linejoin:round"
       d="m 37.707311,43.282038 c 0.01703,-0.617878 0.03785,-1.129287 0.04622,-1.136462 0.02645,-0.02264 2.855784,-0.456994 2.875036,-0.44137 0.01007,0.0081 -0.01319,0.136942 -0.05164,0.286111 -0.0656,0.254066 -0.06532,0.30761 0.0043,0.846975 l 0.07418,0.575763 -0.258224,0.317812 c -0.154544,0.190214 -0.258225,0.354739 -0.258225,0.40979 0,0.0677 -0.0251,0.09628 -0.09509,0.108222 -0.117247,0.02003 -2.077512,0.15678 -2.245692,0.156661 l -0.121732,-8.6e-5 z"
       id="path43" />
    <path
       style="display:inline;fill:#4d4d4d;stroke:#000000;stroke-width:0.455186;stroke-linecap:round;stroke-linejoin:round"
       d="m 59.159373,33.411403 -2.493796,-1.886656 0.04226,-2.847133 0.887624,-0.343029 0.253607,2.984345 2.282462,1.475021"
       id="path48" />
    <text
       xml:space="preserve"
       style="font-size:5.63611px;line-height:0px;text-align:center;text-anchor:middle;display:inline;fill:#000000;fill-opacity:1;stroke:none;stroke-width:0.255316;stroke-linecap:round;stroke-linejoin:round"
       x="25.460886"
       y="64.678574"
       id="text58"
       transform="matrix(0.91198685,-0.4809732,0.51813457,0.82324778,0,0)"><tspan
         sodipodi:role="line"
         id="tspan58"
         x="25.460886"
         y="64.678574"
         style="font-style:normal;font-variant:normal;font-weight:normal;font-stretch:normal;font-family:Phosphate;-inkscape-font-specification:Phosphate;stroke-width:0.255316">barkács</tspan></text>
    <text
       xml:space="preserve"
       style="font-style:normal;font-variant:normal;font-weight:normal;font-stretch:normal;font-size:6.92654px;line-height:0px;font-family:Phosphate;-inkscape-font-specification:Phosphate;text-align:center;text-anchor:middle;display:inline;fill:#000000;fill-opacity:1;stroke:none;stroke-width:0.392215;stroke-linecap:round;stroke-linejoin:round"
       x="31.777618"
       y="58.698711"
       id="text59"
       transform="matrix(0.8965592,-0.52975438,0.64887007,0.73197423,0,0)"><tspan
         sodipodi:role="line"
         id="tspan59"
         x="31.777618"
         y="58.698711"
         style="stroke-width:0.392215">bolt</tspan></text>
    <ellipse
       style="display:inline;fill:#4d4d4d;stroke:#000000;stroke-width:0.266187;stroke-linecap:round;stroke-linejoin:round"
       id="path47"
       cx="36.76017"
       cy="47.023682"
       rx="3.2783849"
       ry="0.58440459"
       transform="matrix(0.93926889,-0.3431821,0.47437726,0.88032166,0,0)" />
    <path
       style="display:inline;fill:#4d4d4d;fill-opacity:1;stroke:#000000;stroke-width:0.455186;stroke-linecap:round;stroke-linejoin:round"
       d="m 63.13255,31.421839 -0.422679,-2.229684 0.803089,-1.303506 0.803088,0.06861 -0.634017,1.543623 0.295875,1.646533"
       id="path54" />
    <ellipse
       style="display:inline;fill:#4d4d4d;fill-opacity:1;stroke:#000000;stroke-width:0.325969;stroke-linecap:round;stroke-linejoin:round"
       id="path53"
       cx="73.395271"
       cy="22.206659"
       rx="3.392477"
       ry="0.43397301"
       transform="matrix(0.99479123,0.10193334,-0.40495963,0.91433457,0,0)" />
    <path
       style="display:inline;fill:#552200;fill-opacity:1;stroke:#552200;stroke-width:0.00397536;stroke-linecap:round;stroke-linejoin:round"
       d="m 46.986007,48.718095 v -0.894416 l 0.03406,-0.06323 c 0.02784,-0.05168 0.03288,-0.07535 0.02755,-0.129671 l -0.0065,-0.06645 5.007936,-2.709464 c 2.754366,-1.490205 5.010794,-2.706605 5.014288,-2.703111 0.0034,0.0034 -0.498738,0.280781 -1.116075,0.616192 -5.439006,2.955122 -8.273834,4.521509 -8.759599,4.840123 -0.07996,0.05244 -0.109656,0.07979 -0.115353,0.106222 -0.05399,0.25063 -0.06095,1.757697 -0.0083,1.81028 0.0081,0.0081 0.05187,-0.0077 0.122053,-0.04415 0.150639,-0.07829 1.662863,-0.891711 3.423818,-1.841662 0.809365,-0.436613 1.474441,-0.790973 1.477948,-0.787467 0.006,0.006 -5.07649,2.761218 -5.093643,2.761218 -0.0045,0 -0.0081,-0.402487 -0.0081,-0.894417 z"
       id="path32" />
    <path
       style="display:inline;fill:#552200;fill-opacity:1;stroke:#552200;stroke-width:0.00185351;stroke-linecap:round;stroke-linejoin:round"
       d="m 32.688365,42.15018 -0.713479,-0.347415 v -1.087464 -1.087462 l 0.731892,0.42247 0.73189,0.422468 -0.0019,0.118611 c -0.0086,0.552548 -0.03243,1.904071 -0.03355,1.905016 -7.79e-4,6.55e-4 -0.322482,-0.155146 -0.714896,-0.346224 z"
       id="path36" />
    <path
       style="display:inline;fill:#552200;fill-opacity:1;stroke:#552200;stroke-width:0.00185351;stroke-linecap:round;stroke-linejoin:round"
       d="m 33.867043,42.420858 c 0.0021,-0.08695 0.01,-0.537464 0.01765,-1.001151 0.0092,-0.562465 0.01598,-0.84382 0.02021,-0.845329 0.0082,-0.003 1.067701,-0.160886 1.069469,-0.159435 7.39e-4,6.08e-4 -0.04996,0.03686 -0.112666,0.08057 -0.0627,0.04371 -0.123652,0.09012 -0.135433,0.103157 -0.02341,0.0259 -0.0486,0.07519 -0.05466,0.107022 -0.0021,0.01113 -0.01666,0.403104 -0.03227,0.871052 l -0.02842,0.850816 -0.355973,0.07211 c -0.195785,0.03967 -0.36401,0.07373 -0.373833,0.07569 l -0.01786,0.0035 z"
       id="path37" />
    <path
       style="display:inline;fill:#552200;fill-opacity:1;stroke:#552200;stroke-width:0.00185351;stroke-linecap:round;stroke-linejoin:round"
       d="m 36.111528,43.704148 c -0.582291,-0.302173 -1.059672,-0.550367 -1.060851,-0.551542 -0.0037,-0.0036 0.06398,-1.997085 0.06798,-2.001072 0.0027,-0.0027 2.113364,0.986639 2.119949,0.99372 0.0013,0.0015 -0.06451,2.066499 -0.06656,2.088766 l -0.0018,0.01953 z"
       id="path44" />
  </g>
  <g
     inkscape:groupmode="layer"
     id="layer6"
     inkscape:label="kalapács 2"
     transform="matrix(0.90300611,0.26288527,-0.21829722,1.0874486,7.1257281,-6.3244205)"
     style="display:inline">
    <path
       style="fill:#333333;fill-opacity:1;stroke:#000000;stroke-width:0.455186;stroke-linecap:round;stroke-linejoin:round"
       d="M 44.847907,18.449775 24.806963,10.655526"
       id="path66"
       sodipodi:nodetypes="cc" />
    <path
       style="display:inline;fill:#a05a2c;fill-opacity:1;stroke:#000000;stroke-width:0.411717;stroke-linecap:round;stroke-linejoin:round"
       d="M 36.960957,11.285696 41.890675,13.214942 23.95857,33.035489 16.755444,30.070245"
       id="path60"
       sodipodi:nodetypes="cc" />
    <ellipse
       style="fill:#a05a2c;fill-opacity:1;stroke:#000000;stroke-width:0.424793;stroke-linecap:round;stroke-linejoin:round"
       id="path59"
       cx="35.7388"
       cy="22.90757"
       rx="3.9891689"
       ry="1.3801299"
       transform="matrix(0.93677294,0.3499378,-0.56975598,0.82181392,0,0)" />
    <path
       style="fill:#552200;fill-opacity:1;stroke:#000000;stroke-width:0.405141;stroke-linecap:round;stroke-linejoin:round"
       d="M 16.722306,29.797225 36.853783,11.405714"
       id="path61"
       sodipodi:nodetypes="cc" />
    <path
       style="fill:#333333;fill-opacity:1;stroke:#000000;stroke-width:0.455186;stroke-linecap:round;stroke-linejoin:round"
       d="m 51.890136,10.110072 -3.375514,4.340841"
       id="path62"
       sodipodi:nodetypes="cc" />
    <path
       style="fill:#333333;fill-opacity:1;stroke:#000000;stroke-width:0.455186;stroke-linecap:round;stroke-linejoin:round"
       d="M 48.551644,14.410419 27.462205,6.1724465"
       id="path63"
       sodipodi:nodetypes="cc" />
    <path
       style="fill:none;fill-opacity:1;stroke:#000000;stroke-width:0.455186;stroke-linecap:round;stroke-linejoin:round"
       d="M 51.924779,10.134868 36.384326,4.7445012"
       id="path64"
       sodipodi:nodetypes="cc" />
    <path
       style="fill:none;fill-opacity:1;stroke:#000000;stroke-width:0.455186;stroke-linecap:round;stroke-linejoin:round"
       d="m 48.43097,14.454551 -3.583063,3.995224"
       id="path65"
       sodipodi:nodetypes="cc" />
    <path
       style="fill:none;fill-opacity:1;stroke:#000000;stroke-width:0.455186;stroke-linecap:round;stroke-linejoin:round"
       d="M 27.374911,6.2455698 24.799687,10.794496"
       id="path67" />
    <path
       style="fill:none;fill-opacity:1;stroke:#000000;stroke-width:0.455186;stroke-linecap:round;stroke-linejoin:round"
       d="M 27.465844,6.1029601 36.300671,4.7481395"
       id="path68" />
    <path
       style="fill:none;fill-opacity:1;stroke:#000000;stroke-width:0.296227;stroke-linecap:round;stroke-linejoin:round"
       d="m -1.4483417,12.763734 c 1.45910016,-0.290779 2.9182004,-0.581558 4.2014906,-0.365194 1.2832902,0.216363 2.3907263,0.93984 3.4981846,1.663332"
       id="path73"
       inkscape:path-effect="#path-effect73"
       inkscape:original-d="m -1.4483417,12.763734 c 1.45910036,-0.290778 2.9182004,-0.581558 4.3773005,-0.872337 1.1074804,0.723506 2.2149166,1.446983 3.3223747,2.170475"
       transform="matrix(1.6556933,-0.07200943,-0.07200943,1.3752277,15.095976,-12.701268)" />
    <path
       style="fill:none;fill-opacity:1;stroke:#000000;stroke-width:0.296227;stroke-linecap:round;stroke-linejoin:round"
       d="m -0.38870528,15.295363 c 1.24056897,-0.268926 2.48113838,-0.537852 3.52467118,-0.387432 1.0435328,0.15042 1.8899948,0.720163 2.7364737,1.289917"
       id="path74"
       inkscape:path-effect="#path-effect74"
       inkscape:original-d="m -0.38870528,15.295363 c 1.24056831,-0.268929 2.48113878,-0.53785 3.72170768,-0.806778 0.8464962,0.569766 1.6929582,1.139509 2.5394372,1.709263"
       transform="matrix(1.6556933,-0.07200943,-0.07200943,1.3752277,15.095976,-12.701268)" />
    <path
       style="fill:none;fill-opacity:1;stroke:#000000;stroke-width:0.296227;stroke-linecap:round;stroke-linejoin:round"
       d="m 5.6562729,10.674524 c 1.1632704,0.02854 2.3265418,0.05708 3.1164273,0.39272 0.7898854,0.335639 1.2063688,0.978352 1.6228608,1.621078"
       id="path75"
       inkscape:path-effect="#path-effect75"
       inkscape:original-d="m 5.6562729,10.674524 c 1.1632704,0.02854 2.3265418,0.05708 3.4898121,0.08562 0.4165011,0.642739 0.8329839,1.285452 1.249476,1.928178"
       transform="matrix(1.6556933,-0.07200943,-0.07200943,1.3752277,15.095976,-12.701268)" />
    <path
       style="fill:#333333;fill-opacity:1;stroke:#333333;stroke-width:0.0102846;stroke-linecap:round;stroke-linejoin:round"
       d="M 38.385805,10.175424 C 30.418187,7.0624052 28.346254,6.2400716 28.412913,6.2172659 28.459186,6.201432 30.259537,5.9187105 32.413682,5.588993 35.14053,5.1716166 36.354627,4.9970631 36.410364,5.0143813 c 0.37464,0.1164035 15.037608,5.2194967 15.041298,5.2347627 0.0053,0.02178 -2.946697,3.821661 -2.985274,3.842767 -0.01295,0.0072 -4.549214,-1.755332 -10.080583,-3.916487 z"
       id="path33" />
    <path
       style="fill:#333333;fill-opacity:1;stroke:#333333;stroke-width:0.0102846;stroke-linecap:round;stroke-linejoin:round"
       d="m 42.181062,17.148237 c -1.423732,-0.553496 -2.593821,-1.014014 -2.6002,-1.023373 -0.0063,-0.0093 0.556147,-0.642203 1.250059,-1.406318 0.700773,-0.771673 1.268488,-1.42441 1.277021,-1.468275 0.0084,-0.04343 -0.0029,-0.110192 -0.0254,-0.148339 -0.05741,-0.09783 -5.044705,-2.049117 -5.163769,-2.020334 -0.04682,0.01132 -0.119082,0.05672 -0.160573,0.100894 -0.179977,0.191593 -2.935302,2.692818 -2.964871,2.691449 -0.03818,-0.0018 -8.515154,-3.295532 -8.54465,-3.320064 -0.02152,-0.01789 2.244898,-4.0348607 2.290942,-4.0604485 0.02075,-0.011534 19.54686,7.5926415 20.381086,7.9371345 0.07923,0.03271 0.132458,0.07396 0.118277,0.09163 -0.05593,0.06972 -3.252254,3.628762 -3.260527,3.630529 -0.0049,10e-4 -1.173705,-0.450974 -2.597436,-1.004471 z"
       id="path34" />
  </g>
</svg>
